<?xml version="1.0" encoding="utf-8"?>
<!-- Generator: Adobe Illustrator 25.2.3, SVG Export Plug-In . SVG Version: 6.00 Build 0)  -->
<svg version="1.1" id="Layer_1" xmlns="http://www.w3.org/2000/svg" xmlns:xlink="http://www.w3.org/1999/xlink" x="0px" y="0px"
	 viewBox="0 0 1911.6 231" style="enable-background:new 0 0 1911.6 231;" xml:space="preserve">
<style type="text/css">
	.st0{display:none;stroke:#FFFFFF;stroke-miterlimit:10;}
	.st1{fill:#A9ABAC;}
	.st2{fill:#FFFFFF;}
	.st3{fill:#F6892B;}
	.st4{fill:none;stroke:#FFFFFF;stroke-width:2;stroke-miterlimit:10;}
	.st5{clip-path:url(#SVGID_2_);fill:#FFFFFF;}
</style>
<rect class="st0" width="1911.6" height="231"/>
<g>
	<g>
		<path class="st1" d="M45.4,44.5v-7.5c0-8.1-3.8-11.6-8-11.6c-6.7,0-8.8,3.5-8.8,10.7V85c0,7.2,2.1,10.7,8.8,10.7c6,0,8-3.5,8-9.7
			V74.4H62v11.1c0,13.6-8,24.7-24.6,24.7C20,110.2,12,99.1,12,85.5V35.8C12,22.2,20,11,37.4,11C54.1,11,62,23.1,62,37.5v7.1
			L45.4,44.5L45.4,44.5z"/>
		<path class="st1" d="M92.8,108.8H76.3V12.4h23.3c18.6,0,28,7.9,28,28.4c0,15.4-6,21.7-11.6,24.3l14,43.7h-16.8l-11.8-39.9
			c-2.1,0.3-5.6,0.4-8.5,0.4v39.5H92.8z M92.8,55.7h5.9c8.9,0,12.3-3.4,12.3-14.8c0-11.5-3.4-14.8-12.3-14.8h-5.9V55.7z"/>
		<path class="st1" d="M151.2,108.8h-16L153,12.4h20.5l17.8,96.4h-16l-2.9-21.3h-18.2L151.2,108.8z M156.5,73.1h13.3l-6.5-41.4h-0.3
			L156.5,73.1z"/>
		<path class="st1" d="M203.2,108.8V12.4h16.6v96.4H203.2z"/>
		<path class="st1" d="M257.8,60h27.1v48.8h-8l-3-7.2c-5,5.9-8.9,8.5-16.8,8.5c-13.1,0-22.1-9.3-22.1-24.7V35.6
			c0-13.6,8-24.7,24.3-24.7c16.6,0,24.9,12,24.9,26.4v6.2h-15.7c0-14.4-2.9-18.2-9.4-18.2c-4.1,0-7.3,2.4-7.3,10.6v49.6
			c0,6.2,2,10.2,7.7,10.2c6.7,0,9-3.8,9-13.3v-9.3h-10.6V60H257.8z"/>
		<path class="st1" d="M318.5,108.8V12.4h15.3L354,67.4h0.3V12.4h14.9v96.4h-14.4l-21.1-60.2h-0.3v60.2H318.5z"/>
		<path class="st1" d="M383.7,108.8V12.4h44.4v14.4h-27.7v24.9h21.3V66h-21.3v28.3H430v14.4h-46.3V108.8z"/>
		<path class="st1" d="M470.8,12.4h13.6l11.3,61.4h0.3l9.2-61.4h15.4l-17,96.4h-13.9l-12-63.7h-0.3l-11.3,63.7h-13.7l-18.3-96.4
			h15.4l10.2,61.4h0.3L470.8,12.4z"/>
		<path class="st1" d="M599,12.4v96.4h-14.4V33.6h-0.3l-14.9,75.2h-8l-14.9-75.2h-0.3v75.2h-14.4V12.4h21.7l11.8,56.4h0.3l11.8-56.4
			C577.4,12.4,599,12.4,599,12.4z"/>
		<path class="st1" d="M625.7,108.8h-16l17.8-96.4H648l17.8,96.4h-16L647,87.5h-18.2L625.7,108.8z M631,73.1h13.3l-6.5-41.4h-0.3
			L631,73.1z"/>
		<path class="st1" d="M693.3,108.8h-16.6V12.4H700c18.6,0,28,7.9,28,28.4c0,15.4-6,21.7-11.6,24.3l14,43.7h-16.9l-11.8-39.9
			c-2.1,0.3-5.6,0.4-8.5,0.4v39.5H693.3z M693.3,55.7h5.9c8.9,0,12.3-3.4,12.3-14.8c0-11.5-3.4-14.8-12.3-14.8h-5.9V55.7z"/>
		<path class="st1" d="M742.5,108.8V12.4h16.6v35.7h0.3l17.4-35.6h16.6l-17.9,35.9l20.2,60.5h-16.9l-13.5-44.9H765l-5.9,10.7v34.2
			H742.5z"/>
		<path class="st2" d="M842.4,60h27.1v48.8h-8l-3-7.2c-5,5.9-8.9,8.5-16.8,8.5c-13.1,0-22.1-9.3-22.1-24.7V35.6
			c0-13.6,8-24.7,24.3-24.7c16.6,0,24.9,12,24.9,26.4v6.2h-15.7c0-14.4-2.9-18.2-9.4-18.2c-4.1,0-7.3,2.4-7.3,10.6v49.6
			c0,6.2,2,10.2,7.7,10.2c6.7,0,9-3.8,9-13.3v-9.3h-10.7V60z"/>
		<path class="st2" d="M900.3,108.8h-16.6V12.4H907c18.6,0,28,7.9,28,28.4c0,15.4-6,21.7-11.6,24.3l14,43.7h-16.9l-11.8-39.9
			c-2.1,0.3-5.6,0.4-8.5,0.4v39.5H900.3z M900.3,55.7h5.9c8.9,0,12.3-3.4,12.3-14.8c0-11.5-3.4-14.8-12.3-14.8h-5.9V55.7z"/>
		<path class="st2" d="M959.3,108.8h-16l17.8-96.4h20.5l17.8,96.4h-16l-2.9-21.3h-18.2L959.3,108.8z M964.7,73.1h13.3l-6.5-41.4
			h-0.3L964.7,73.1z"/>
		<path class="st2" d="M1010.4,12.4h24.6c17.1,0,26.2,9.3,26.2,29.1v38.2c0,19.8-9,29.1-26.2,29.1h-24.6V12.4z M1027,95.2h5.8
			c8.8,0,11.9-3.4,11.9-13.5V39.6c0-10.2-3-13.5-11.9-13.5h-5.8V95.2z"/>
		<path class="st2" d="M1075,12.4h16.6v72.8c0,7.1,2.7,10.6,8.8,10.6s8.8-3.5,8.8-10.6V12.4h16.6v72.1c0,16.6-9.6,25.6-25.4,25.6
			c-15.7,0-25.4-9-25.4-25.6V12.4z"/>
		<path class="st2" d="M1150.9,108.8h-16l17.8-96.4h20.5l17.8,96.4h-16l-2.9-21.3h-18.2L1150.9,108.8z M1156.3,73.1h13.3l-6.5-41.4
			h-0.3L1156.3,73.1z"/>
		<path class="st2" d="M1207.1,26.9h-16V12.5h48.5v14.4h-16v82h-16.6L1207.1,26.9L1207.1,26.9z"/>
		<path class="st2" d="M1250.6,108.8V12.4h44.4v14.4h-27.7v24.9h21.3V66h-21.3v28.3h29.7v14.4h-46.3V108.8z"/>
		<path class="st2" d="M517.6,146.7c-0.7-8.2-5.1-10.7-8.8-10.7c-5.4,0-8.2,3.5-8.2,9.4c0,16.5,33.6,24.3,33.6,50.5
			c0,15.8-10.7,24.7-26.2,24.7c-15.3,0-24.2-12.3-24.9-26.7l15.7-2.2c0.7,9.7,4.6,14.5,9.9,14.5c5.8,0,9.6-3,9.6-8.8
			c0-19.1-33.6-24.2-33.6-51.8c0-15.3,9.3-24.1,25.6-24.1c13.5,0,21.5,9.7,23,23.4L517.6,146.7z"/>
		<path class="st2" d="M579.7,155.1v-7.5c0-8.1-3.8-11.6-8-11.6c-6.7,0-8.8,3.5-8.8,10.7v48.8c0,7.2,2.1,10.7,8.8,10.7
			c6,0,8-3.5,8-9.7V185h16.6v11.1c0,13.6-8,24.7-24.6,24.7c-17.4,0-25.4-11.1-25.4-24.7v-49.7c0-13.6,8-24.7,25.4-24.7
			c16.6,0,24.6,12,24.6,26.4v7.1L579.7,155.1L579.7,155.1z"/>
		<path class="st2" d="M610.5,219.4v-96.4h16.6v39.3h17.7v-39.3h16.6v96.4h-16.6v-42.8h-17.7v42.8H610.5z"/>
		<path class="st2" d="M675.4,146.4c0-13.6,8-24.7,25.4-24.7c17.4,0,25.4,11.1,25.4,24.7v49.7c0,13.6-8,24.7-25.4,24.7
			c-17.4,0-25.4-11.1-25.4-24.7V146.4z M691.9,195.7c0,7.2,2.1,10.7,8.8,10.7c6.7,0,8.8-3.5,8.8-10.7v-48.8c0-7.2-2.1-10.7-8.8-10.7
			c-6.7,0-8.8,3.5-8.8,10.7V195.7z"/>
		<path class="st2" d="M740,146.4c0-13.6,8-24.7,25.4-24.7c17.4,0,25.4,11.1,25.4,24.7v49.7c0,13.6-8,24.7-25.4,24.7
			c-17.4,0-25.4-11.1-25.4-24.7V146.4z M756.5,195.7c0,7.2,2.1,10.7,8.8,10.7c6.7,0,8.8-3.5,8.8-10.7v-48.8c0-7.2-2.1-10.7-8.8-10.7
			c-6.7,0-8.8,3.5-8.8,10.7V195.7z"/>
		<path class="st2" d="M804.5,219.4v-96.4h16.6v82h26v14.4H804.5z"/>
		<path class="st2" d="M874,146.4c0-13.6,8-24.7,25.4-24.7c17.4,0,25.4,11.1,25.4,24.7v49.7c0,13.6-8,24.7-25.4,24.7
			c-17.4,0-25.4-11.1-25.4-24.7V146.4z M890.6,195.7c0,7.2,2.1,10.7,8.8,10.7c6.7,0,8.8-3.5,8.8-10.7v-48.8c0-7.2-2.1-10.7-8.8-10.7
			c-6.7,0-8.8,3.5-8.8,10.7V195.7z"/>
		<path class="st2" d="M938.9,219.4v-96.4h46.2v14.4h-29.7v24.9h22.1v14.4h-22.1v42.8H938.9z"/>
		<path class="st3" d="M1007.4,206.3h3.5c6.4,0,8.6-2.6,8.6-8v-75.2h16.6v77.2c0,12.3-5,20.5-23.3,20.5h-5.5V206.3z"/>
		<path class="st3" d="M1050,146.4c0-13.6,8-24.7,25.4-24.7c17.4,0,25.4,11.1,25.4,24.7v49.7c0,13.6-8,24.7-25.4,24.7
			c-17.4,0-25.4-11.1-25.4-24.7V146.4z M1066.7,195.7c0,7.2,2.1,10.7,8.8,10.7c6.7,0,8.8-3.5,8.8-10.7v-48.8
			c0-7.2-2.1-10.7-8.8-10.7c-6.7,0-8.8,3.5-8.8,10.7V195.7z"/>
		<path class="st3" d="M1114.8,123.1h16.6v72.8c0,7.1,2.7,10.6,8.8,10.6c6,0,8.8-3.5,8.8-10.6v-72.8h16.6v72.1
			c0,16.6-9.6,25.6-25.4,25.6c-15.7,0-25.4-9-25.4-25.6L1114.8,123.1L1114.8,123.1z"/>
		<path class="st3" d="M1196.5,219.4h-16.6v-96.4h23.3c18.6,0,28,7.9,28,28.4c0,15.4-6,21.7-11.6,24.3l14,43.7h-16.9l-11.8-39.9
			c-2.1,0.3-5.6,0.4-8.5,0.4v39.5H1196.5z M1196.5,166.2h5.9c8.9,0,12.3-3.4,12.3-14.8c0-11.5-3.4-14.8-12.3-14.8h-5.9V166.2z"/>
		<path class="st3" d="M1246.1,219.4v-96.4h15.3l20.2,55.1h0.3v-55.1h14.9v96.4h-14.4l-21.1-60.2h-0.1v60.2L1246.1,219.4
			L1246.1,219.4z"/>
		<path class="st3" d="M1323.8,219.4h-16l17.8-96.4h20.5l17.8,96.4h-16l-2.9-21.3h-18.2L1323.8,219.4z M1329.2,183.7h13.3l-6.5-41.4
			h-0.3L1329.2,183.7z"/>
		<path class="st3" d="M1374.6,219.4v-96.4h16.6v82h26v14.4H1374.6z"/>
		<path class="st3" d="M1426.8,219.4v-96.4h16.6v96.4H1426.8z"/>
		<path class="st3" d="M1490.6,146.7c-0.7-8.2-5.1-10.7-8.8-10.7c-5.4,0-8.2,3.5-8.2,9.4c0,16.5,33.6,24.3,33.6,50.5
			c0,15.8-10.7,24.7-26.2,24.7c-15.3,0-24.2-12.3-24.9-26.7l15.7-2.2c0.7,9.7,4.6,14.5,9.9,14.5c5.8,0,9.6-3,9.6-8.8
			c0-19.1-33.6-24.2-33.6-51.8c0-15.3,9.3-24.1,25.6-24.1c13.5,0,21.5,9.7,23,23.4L1490.6,146.7z"/>
		<path class="st3" d="M1586.3,123.1v96.4h-14.4v-75.2h-0.3l-14.9,75.2h-8l-14.9-75.2h-0.3v75.2h-14.4v-96.4h21.7l11.8,56.4h0.3
			l11.8-56.4L1586.3,123.1L1586.3,123.1z"/>
	</g>
</g>
<line class="st4" x1="1638.3" y1="-0.6" x2="1638.3" y2="230.4"/>
<g>
	<polygon class="st2" points="1766.5,116.4 1766.5,171.9 1717,116.4 1691.4,116.4 1691.4,116.4 1691.4,219.9 1719.9,219.9 
		1719.9,164.4 1768.7,219.9 1794.9,219.9 1794.9,116.4 1766.5,116.4 	"/>
	<g>
		<defs>
			<rect id="SVGID_1_" x="1684.2" y="10" width="214.3" height="209.9"/>
		</defs>
		<clipPath id="SVGID_2_">
			<use xlink:href="#SVGID_1_"  style="overflow:visible;"/>
		</clipPath>
		<path class="st5" d="M1898.4,72.9c0-3.7,0-7.5,0-11.3c0-3.4,0-6.9,0-10.2l0,0c0,0,0,0,0,0c0-19.8,0-36.2,0-36.2l-27.8,0l-0.6,0
			v36.2v21.5c0,2.5-0.4,4.8-1.2,6.9c-1,2.7-2.7,5-5,7c-4.4,3.7-10.7,6-17,6l0,0v0c0,0,0,0,0,0c0,0,0,0,0,0v0l0,0
			c-6.3,0-12.7-2.3-17-6c-2.3-2-4-4.3-5-7c-0.8-2.1-1.2-4.4-1.2-6.9V51.4V15.2l-0.6,0l-27.8,0c0,0,0,16.5,0,36.2c0,0,0,0,0,0h0
			c0,3.3,0,6.7,0,10.2c0,3.8,0,7.5,0,11.3v6.9h0c0,22.9,24.7,41.1,50.4,41.4c0.3,0,0.5,0,0.8,0c0.1,0,0.2,0,0.3,0c0.1,0,0.1,0,0.2,0
			v0c0,0,0,0,0,0c0,0,0,0,0,0c0,0,0,0,0,0l0,0c0.1,0,0.1,0,0.2,0c0.1,0,0.2,0,0.3,0c0.3,0,0.5,0,0.8,0c25.7-0.4,50.4-18,50.4-41.4
			l0,0V72.9L1898.4,72.9z"/>
		<path class="st5" d="M1763.9,79.8c-4.6,7.7-12.8,12.8-22.2,12.9c-0.1,0-0.2,0-0.4,0c-14.6,0-26.4-12.1-26.4-27.1
			c0-15,11.8-27.1,26.4-27.1c0.1,0,0.2,0,0.4,0c9.4,0.1,17.6,5.3,22.2,12.9h31c0-23.4-24.6-41-50.2-41.4c-0.1,0-0.1,0-0.2,0
			c-0.3,0-0.5,0-0.8,0c-0.1,0-0.2,0-0.3,0c-0.1,0-0.1,0-0.2,0l0,0c0,0,0,0,0,0c0,0,0,0,0,0c0,0,0,0,0,0v0c-0.1,0-0.1,0-0.2,0
			c-0.1,0-0.2,0-0.3,0c-0.3,0-0.5,0-0.8,0h-2.1c-20.4,0-38.2,10.9-47.9,27.3c-4.9,8.3-7.8,18-7.8,28.3l0,0c0,0,0,0,0,0c0,0,0,0,0,0
			l0,0c0,10.4,2.8,20,7.8,28.3c9.7,16.3,27.5,27.3,47.9,27.3h2.1c0.3,0,0.5,0,0.8,0c0.1,0,0.2,0,0.3,0c0.1,0,0.1,0,0.2,0v0
			c0,0,0,0,0,0c0,0,0,0,0,0c0,0,0,0,0,0l0,0c0.1,0,0.1,0,0.2,0c0.1,0,0.2,0,0.3,0c0.3,0,0.5,0,0.8,0c0.1,0,0.1,0,0.2,0
			c25.6-0.4,50.2-18.1,50.2-41.4H1763.9L1763.9,79.8z"/>
	</g>
	<polygon class="st2" points="1870,116.4 1846.7,163.9 1823.4,116.4 1794.9,116.4 1832.5,192.9 1832.5,219.9 1860.9,219.9 
		1860.9,192.9 1898.5,116.4 1870,116.4 	"/>
</g>
</svg>
